<svg width="14" height="15" viewBox="0 0 14 15" fill="none" xmlns="http://www.w3.org/2000/svg">
<path d="M8.3125 2.0625C8.3125 1.35156 7.71094 0.75 7 0.75C6.26172 0.75 5.6875 1.35156 5.6875 2.0625C5.6875 2.80078 6.26172 3.375 7 3.375C7.71094 3.375 8.3125 2.80078 8.3125 2.0625ZM7 12.125C6.26172 12.125 5.6875 12.7266 5.6875 13.4375C5.6875 14.1758 6.26172 14.75 7 14.75C7.71094 14.75 8.3125 14.1758 8.3125 13.4375C8.3125 12.7266 7.71094 12.125 7 12.125ZM12.6875 6.4375C11.9492 6.4375 11.375 7.03906 11.375 7.75C11.375 8.48828 11.9492 9.0625 12.6875 9.0625C13.3984 9.0625 14 8.48828 14 7.75C14 7.03906 13.3984 6.4375 12.6875 6.4375ZM2.625 7.75C2.625 7.03906 2.02344 6.4375 1.3125 6.4375C0.574219 6.4375 0 7.03906 0 7.75C0 8.48828 0.574219 9.0625 1.3125 9.0625C2.02344 9.0625 2.625 8.48828 2.625 7.75ZM2.95312 10.4844C2.24219 10.4844 1.64062 11.0586 1.64062 11.7969C1.64062 12.5078 2.24219 13.1094 2.95312 13.1094C3.69141 13.1094 4.26562 12.5078 4.26562 11.7969C4.26562 11.0586 3.69141 10.4844 2.95312 10.4844ZM11.0195 10.4844C10.2812 10.4844 9.70703 11.0586 9.70703 11.7969C9.70703 12.5078 10.2812 13.1094 11.0195 13.1094C11.7305 13.1094 12.332 12.5078 12.332 11.7969C12.332 11.0586 11.7305 10.4844 11.0195 10.4844ZM2.95312 2.41797C2.24219 2.41797 1.64062 3.01953 1.64062 3.73047C1.64062 4.46875 2.24219 5.04297 2.95312 5.04297C3.69141 5.04297 4.26562 4.46875 4.26562 3.73047C4.26562 3.01953 3.69141 2.41797 2.95312 2.41797Z" fill="white" fill-opacity="0.35"/>
</svg>
